<svg width="72" height="72" viewBox="0 0 72 72" fill="none" xmlns="http://www.w3.org/2000/svg">
<path d="M32.6264 10.7461H10.3614C8.67426 10.7461 7.05621 11.4163 5.86321 12.6093C4.67022 13.8023 4 15.4204 4 17.1075V61.6374C4 63.3245 4.67022 64.9426 5.86321 66.1356C7.05621 67.3286 8.67426 67.9988 10.3614 67.9988H54.8913C56.5784 67.9988 58.1965 67.3286 59.3895 66.1356C60.5825 64.9426 61.2527 63.3245 61.2527 61.6374V39.3724" stroke="#232224" stroke-width="6.36141" stroke-linecap="round" stroke-linejoin="round"/>
<path d="M56.4833 5.97624C57.7487 4.71087 59.4649 4 61.2544 4C63.0439 4 64.7601 4.71087 66.0255 5.97624C67.2908 7.2416 68.0017 8.9578 68.0017 10.7473C68.0017 12.5368 67.2908 14.253 66.0255 15.5184L35.8088 45.7351L23.0859 48.9158L26.2666 36.1929L56.4833 5.97624Z" stroke="#232224" stroke-width="6.36141" stroke-linecap="round" stroke-linejoin="round"/>
</svg>
