<svg width="70" height="59" viewBox="0 0 70 59" fill="none" xmlns="http://www.w3.org/2000/svg">
<path d="M49.5455 55.3627V49.5446C49.5455 46.4584 48.3195 43.4987 46.1372 41.3164C43.955 39.1342 40.9952 37.9082 37.9091 37.9082H14.6364C11.5502 37.9082 8.59045 39.1342 6.40821 41.3164C4.22597 43.4987 3 46.4584 3 49.5446V55.3627" stroke="#232224" stroke-width="5.81818" stroke-linecap="round" stroke-linejoin="round"/>
<path d="M26.2731 26.2727C32.6997 26.2727 37.9094 21.063 37.9094 14.6364C37.9094 8.20978 32.6997 3 26.2731 3C19.8465 3 14.6367 8.20978 14.6367 14.6364C14.6367 21.063 19.8465 26.2727 26.2731 26.2727Z" stroke="#232224" stroke-width="5.81818" stroke-linecap="round" stroke-linejoin="round"/>
<path d="M67.0007 55.3654V49.5472C66.9988 46.969 66.1407 44.4644 64.561 42.4267C62.9814 40.389 60.7698 38.9336 58.2734 38.2891" stroke="#232224" stroke-width="5.81818" stroke-linecap="round" stroke-linejoin="round"/>
<path d="M46.6367 3.38086C49.1397 4.02174 51.3583 5.47744 52.9426 7.51849C54.5269 9.55953 55.3868 12.0698 55.3868 14.6536C55.3868 17.2374 54.5269 19.7476 52.9426 21.7887C51.3583 23.8297 49.1397 25.2854 46.6367 25.9263" stroke="#232224" stroke-width="5.81818" stroke-linecap="round" stroke-linejoin="round"/>
</svg>
