<svg width="676" height="647" viewBox="0 0 676 647" fill="none" xmlns="http://www.w3.org/2000/svg">
<g id="LogoVetorPentago">
<path d="M86.5697 557.714C121.512 639.093 172.547 650.28 286.854 644.836L290.12 272.389C305.169 215.044 324.626 197.171 359.784 167.842C410.898 129.726 493.625 127.548 551.361 167.842C657.989 246.252 641.661 386.737 551.361 445.544C476.689 486.365 424.385 486.862 359.784 445.544V644.836H479.52C542.354 629.993 567.801 612.245 589.458 557.714L674.362 299.615C677.244 247.42 671.343 221.254 636.264 184.178L400.059 15.3784C380.368 5.29099 368.421 1.20855 343.411 1.221C318.68 0.369511 306.693 1.86115 288.396 7.75517L40.8069 184.178C14.6181 213.334 -2.67309 240.058 1.66639 299.615L86.5697 557.714Z" fill="#E73B49"/>
<path d="M457.704 399.805C514.306 399.805 552.404 358.422 552.404 305.06C552.404 251.698 512.129 210.315 455.527 210.315C398.925 210.315 360.148 251.509 360.827 305.06C361.506 358.611 401.102 399.805 457.704 399.805Z" fill="#E73B49"/>
<path d="M86.5697 557.714C121.512 639.093 172.547 650.28 286.854 644.836L290.12 272.389C305.169 215.044 324.626 197.171 359.784 167.842C410.898 129.726 493.625 127.548 551.361 167.842C657.989 246.252 641.661 386.737 551.361 445.544C476.689 486.365 424.385 486.862 359.784 445.544V644.836H479.52C542.354 629.993 567.801 612.245 589.458 557.714L674.362 299.615C677.244 247.42 671.343 221.254 636.264 184.178L400.059 15.3784C380.368 5.29099 368.421 1.20855 343.411 1.221C318.68 0.369511 306.693 1.86115 288.396 7.75517L40.8069 184.178C14.6181 213.334 -2.67309 240.058 1.66639 299.615L86.5697 557.714Z" stroke="black"/>
<path d="M457.704 399.805C514.306 399.805 552.404 358.422 552.404 305.06C552.404 251.698 512.129 210.315 455.527 210.315C398.925 210.315 360.148 251.509 360.827 305.06C361.506 358.611 401.102 399.805 457.704 399.805Z" stroke="black"/>
</g>
</svg>
