<svg viewBox="0 0 2763 1008" fill="none" xmlns="http://www.w3.org/2000/svg">
<path d="M86.5697 918.714C121.512 1000.09 172.547 1011.28 286.854 1005.84L290.12 633.389C305.169 576.044 324.626 558.171 359.784 528.842C410.898 490.726 493.625 488.548 551.361 528.842C657.989 607.252 641.661 747.737 551.361 806.544C476.689 847.365 424.385 847.862 359.784 806.544V1005.84H479.52C542.354 990.993 567.801 973.245 589.458 918.714L674.362 660.615C677.244 608.42 671.343 582.254 636.264 545.178L400.059 376.378C380.368 366.291 368.421 362.209 343.411 362.221C318.68 361.37 306.693 362.861 288.396 368.755L40.8069 545.178C14.6181 574.334 -2.67309 601.058 1.66639 660.615L86.5697 918.714Z" fill="#E73B49"/>
<path d="M457.704 760.805C514.306 760.805 552.404 719.422 552.404 666.06C552.404 612.698 512.129 571.315 455.527 571.315C398.925 571.315 360.148 612.509 360.827 666.06C361.506 719.611 401.102 760.805 457.704 760.805Z" fill="#E73B49"/>
<path d="M86.5697 918.714C121.512 1000.09 172.547 1011.28 286.854 1005.84L290.12 633.389C305.169 576.044 324.626 558.171 359.784 528.842C410.898 490.726 493.625 488.548 551.361 528.842C657.989 607.252 641.661 747.737 551.361 806.544C476.689 847.365 424.385 847.862 359.784 806.544V1005.84H479.52C542.354 990.993 567.801 973.245 589.458 918.714L674.362 660.615C677.244 608.42 671.343 582.254 636.264 545.178L400.059 376.378C380.368 366.291 368.421 362.209 343.411 362.221C318.68 361.37 306.693 362.861 288.396 368.755L40.8069 545.178C14.6181 574.334 -2.67309 601.058 1.66639 660.615L86.5697 918.714Z" stroke="black"/>
<path d="M457.704 760.805C514.306 760.805 552.404 719.422 552.404 666.06C552.404 612.698 512.129 571.315 455.527 571.315C398.925 571.315 360.148 612.509 360.827 666.06C361.506 719.611 401.102 760.805 457.704 760.805Z" stroke="black"/>
<path d="M2529 679C2529 736.99 2576.01 784 2634 784C2691.61 784 2737.5 737.37 2737.5 679C2737.5 620.63 2691.61 574 2634 574C2576.01 574 2529 621.01 2529 679Z" stroke="#E83B49" stroke-width="50"/>
<path d="M2229 679C2229 736.99 2276.01 784 2334 784C2391.61 784 2437.5 737.37 2437.5 679C2437.5 620.63 2391.61 574 2334 574C2276.01 574 2229 621.01 2229 679Z" stroke="#E63C49" stroke-width="50"/>
<path d="M2211.17 830.69C2204.44 818.635 2208.76 803.406 2220.81 796.674C2232.87 789.942 2248.1 794.257 2254.83 806.312L2211.17 830.69ZM2254.83 806.312C2264.98 824.484 2273.53 835.428 2283.96 842.415C2294.01 849.142 2308.57 854.001 2334.1 854.001V904.001C2302.14 904.001 2276.9 897.86 2256.14 883.962C2235.78 870.324 2222.52 851.018 2211.17 830.69L2254.83 806.312ZM2334.1 854.001C2358.02 854.001 2378.33 846.804 2392.09 836.464C2405.81 826.149 2412 813.734 2412 802.001H2462C2462 832.794 2445.48 858.879 2422.13 876.432C2398.81 893.961 2367.67 904.001 2334.1 904.001V854.001Z" fill="#E63C49"/>
<path d="M2437 665V809" stroke="#E63C49" stroke-width="50"/>
<path d="M1914 679C1914 736.99 1961.01 784 2019 784C2076.61 784 2122.5 737.37 2122.5 679C2122.5 620.63 2076.61 574 2019 574C1961.01 574 1914 621.01 1914 679Z" stroke="black" stroke-width="50"/>
<path d="M1914 679C1914 736.99 1961.01 784 2019 784C2076.61 784 2122.5 737.37 2122.5 679C2122.5 620.63 2076.61 574 2019 574C1961.01 574 1914 621.01 1914 679Z" stroke="black" stroke-width="50"/>
<path d="M2097 782C2097 795.807 2108.19 807 2122 807C2135.81 807 2147 795.807 2147 782H2097ZM2097 665V782H2147V665H2097Z" fill="black"/>
<path d="M1791 487C1791 473.193 1779.81 462 1766 462C1752.19 462 1741 473.193 1741 487H1791ZM1741 487V736H1791V487H1741Z" fill="black"/>
<path d="M1853.5 807.5C1867.31 807.5 1878.5 796.307 1878.5 782.5C1878.5 768.693 1867.31 757.5 1853.5 757.5V807.5ZM1822.5 757.5C1810.86 757.5 1802.51 754.524 1797.73 750.909C1793.76 747.904 1791 743.678 1791 736H1741C1741 759.249 1751.03 778.274 1767.57 790.787C1783.31 802.69 1803.21 807.5 1822.5 807.5V757.5ZM1822.5 807.5H1853.5V757.5H1822.5V807.5Z" fill="black"/>
<path d="M1719 580H1826" stroke="black" stroke-width="50" stroke-linecap="round"/>
<path d="M1627 675C1627 620.324 1581.78 576 1526 576C1470.22 576 1425 620.324 1425 675" stroke="black" stroke-width="50"/>
<path d="M1424 575V782" stroke="black" stroke-width="50" stroke-linecap="round"/>
<path d="M1602 782C1602 795.807 1613.19 807 1627 807C1640.81 807 1652 795.807 1652 782H1602ZM1602 675V782H1652V675H1602Z" fill="black"/>
<path d="M1206 780C1152.43 780 1109 734.109 1109 677.5C1109 620.891 1152.43 575 1206 575" stroke="black" stroke-width="50"/>
<path d="M1342 679.5C1342 693.307 1330.81 704.5 1317 704.5C1303.19 704.5 1292 693.307 1292 679.5H1342ZM1292 679.5C1292 638.245 1254.25 600 1206 600V550C1279.25 550 1342 608.089 1342 679.5H1292Z" fill="black"/>
<path d="M1256.83 743.892C1269.31 737.996 1284.21 743.338 1290.11 755.823C1296 768.308 1290.66 783.208 1278.17 789.104L1256.83 743.892ZM1200 754.998C1222.45 754.998 1232.21 753.72 1237.9 752.24C1243.78 750.711 1245.43 749.274 1256.83 743.892L1278.17 789.104C1271.57 792.222 1262.39 797.535 1250.48 800.631C1238.38 803.776 1223.39 804.998 1200 804.998V754.998Z" fill="black"/>
<path d="M1316.5 709C1330.31 709 1341.5 697.807 1341.5 684C1341.5 670.193 1330.31 659 1316.5 659V709ZM1132 709H1316.5V659H1132V709Z" fill="black"/>
<path d="M1023 679C1023 736.99 975.99 784 918 784C860.387 784 814.5 737.37 814.5 679C814.5 620.63 860.387 574 918 574C975.99 574 1023 621.01 1023 679Z" stroke="black" stroke-width="50"/>
<path d="M790 882C790 895.807 801.193 907 815 907C828.807 907 840 895.807 840 882H790ZM790 665V882H840V665H790Z" fill="black"/>
<path d="M447.25 291C438.583 291 430.833 290.833 424 290.5C417.333 290.167 411 289.833 405 289.5V109.25C413.167 108.583 421.75 108.083 430.75 107.75C439.75 107.417 448.333 107.25 456.5 107.25C478.167 107.25 496.083 110.833 510.25 118C524.583 125.167 535.25 135.417 542.25 148.75C549.25 161.917 552.75 177.75 552.75 196.25C552.75 217.583 548.667 235.25 540.5 249.25C532.5 263.25 520.667 273.75 505 280.75C489.333 287.583 470.083 291 447.25 291ZM453.75 264.75C467.417 264.75 479.083 262.417 488.75 257.75C498.417 252.917 505.833 245.5 511 235.5C516.167 225.5 518.75 212.667 518.75 197C518.75 183.167 516.417 171.5 511.75 162C507.083 152.5 500.25 145.417 491.25 140.75C482.25 135.917 471.167 133.5 458 133.5C454.5 133.5 451 133.583 447.5 133.75C444 133.75 440.667 133.917 437.5 134.25V264.25C440 264.417 442.5 264.583 445 264.75C447.667 264.75 450.583 264.75 453.75 264.75ZM636.352 292.75C621.852 292.75 609.685 290.083 599.852 284.75C590.185 279.25 582.852 271.5 577.852 261.5C573.018 251.5 570.602 239.667 570.602 226C570.602 216.667 571.852 207.917 574.352 199.75C577.018 191.417 580.935 184.083 586.102 177.75C591.435 171.25 598.018 166.25 605.852 162.75C613.685 159.083 622.768 157.25 633.102 157.25C643.602 157.25 652.518 159.167 659.852 163C667.185 166.833 672.935 172.167 677.102 179C681.435 185.833 684.268 193.833 685.602 203C686.935 212 686.852 221.667 685.352 232H587.852L604.852 219.5C602.018 230 601.685 238.917 603.852 246.25C606.018 253.583 610.268 259.167 616.602 263C623.102 266.833 631.185 268.75 640.852 268.75C647.518 268.75 654.102 268.083 660.602 266.75C667.102 265.25 672.602 263.833 677.102 262.5L680.602 284.75C674.602 287.083 667.602 289 659.602 290.5C651.768 292 644.018 292.75 636.352 292.75ZM588.102 214.75H656.852C657.018 213.917 657.102 213.167 657.102 212.5C657.102 211.833 657.102 211.333 657.102 211C657.102 204.833 656.268 199.417 654.602 194.75C652.935 190.083 650.185 186.417 646.352 183.75C642.685 180.917 637.852 179.5 631.852 179.5C624.852 179.5 619.018 181.583 614.352 185.75C609.852 189.917 606.602 195.25 604.602 201.75C602.768 208.25 602.268 215.167 603.102 222.5L588.102 214.75ZM744.902 292.75C737.569 292.75 730.152 291.917 722.652 290.25C715.319 288.75 709.069 286.917 703.902 284.75L707.902 262.75C710.736 263.75 714.236 264.833 718.402 266C722.569 267 726.986 267.917 731.652 268.75C736.319 269.417 740.819 269.75 745.152 269.75C752.319 269.75 757.736 268.333 761.402 265.5C765.069 262.667 766.902 259.083 766.902 254.75C766.902 251.25 765.652 248.333 763.152 246C760.652 243.5 757.402 241.417 753.402 239.75C749.569 237.917 745.402 236.083 740.902 234.25C735.569 232.083 730.236 229.5 724.902 226.5C719.569 223.333 715.069 219.333 711.402 214.5C707.902 209.667 706.152 203.417 706.152 195.75C706.152 187.75 708.236 180.917 712.402 175.25C716.569 169.583 722.402 165.167 729.902 162C737.402 158.833 745.986 157.25 755.652 157.25C762.486 157.25 769.152 158 775.652 159.5C782.152 160.833 787.652 162.5 792.152 164.5L788.402 186.5C785.902 185.5 782.819 184.583 779.152 183.75C775.652 182.75 771.902 181.917 767.902 181.25C763.902 180.583 760.152 180.25 756.652 180.25C750.652 180.25 745.902 181.5 742.402 184C738.902 186.333 737.152 189.667 737.152 194C737.152 197 738.236 199.583 740.402 201.75C742.736 203.917 745.736 205.833 749.402 207.5C753.069 209.167 756.986 210.917 761.152 212.75C766.819 214.917 772.486 217.583 778.152 220.75C783.819 223.75 788.569 227.75 792.402 232.75C796.236 237.75 798.152 244.333 798.152 252.5C798.152 260.667 795.902 267.75 791.402 273.75C786.902 279.75 780.652 284.417 772.652 287.75C764.819 291.083 755.569 292.75 744.902 292.75ZM881.469 292.75C866.969 292.75 854.802 290.083 844.969 284.75C835.302 279.25 827.969 271.5 822.969 261.5C818.135 251.5 815.719 239.667 815.719 226C815.719 216.667 816.969 207.917 819.469 199.75C822.135 191.417 826.052 184.083 831.219 177.75C836.552 171.25 843.135 166.25 850.969 162.75C858.802 159.083 867.885 157.25 878.219 157.25C888.719 157.25 897.635 159.167 904.969 163C912.302 166.833 918.052 172.167 922.219 179C926.552 185.833 929.385 193.833 930.719 203C932.052 212 931.969 221.667 930.469 232H832.969L849.969 219.5C847.135 230 846.802 238.917 848.969 246.25C851.135 253.583 855.385 259.167 861.719 263C868.219 266.833 876.302 268.75 885.969 268.75C892.635 268.75 899.219 268.083 905.719 266.75C912.219 265.25 917.719 263.833 922.219 262.5L925.719 284.75C919.719 287.083 912.719 289 904.719 290.5C896.885 292 889.135 292.75 881.469 292.75ZM833.219 214.75H901.969C902.135 213.917 902.219 213.167 902.219 212.5C902.219 211.833 902.219 211.333 902.219 211C902.219 204.833 901.385 199.417 899.719 194.75C898.052 190.083 895.302 186.417 891.469 183.75C887.802 180.917 882.969 179.5 876.969 179.5C869.969 179.5 864.135 181.583 859.469 185.75C854.969 189.917 851.719 195.25 849.719 201.75C847.885 208.25 847.385 215.167 848.219 222.5L833.219 214.75ZM955.77 199.5C955.77 192 955.686 185 955.52 178.5C955.52 172 955.353 165.833 955.02 160L982.77 159L985.02 176.5H986.02C988.853 173.833 992.353 171 996.52 168C1000.85 165 1005.77 162.5 1011.27 160.5C1016.77 158.333 1022.85 157.25 1029.52 157.25C1036.35 157.25 1042.35 158.417 1047.52 160.75C1052.85 163.083 1057.35 166.583 1061.02 171.25C1064.69 175.75 1067.44 181.417 1069.27 188.25C1071.27 194.917 1072.27 202.583 1072.27 211.25V290H1040.02V212.25C1040.02 206.75 1039.35 202.167 1038.02 198.5C1036.69 194.667 1034.94 191.667 1032.77 189.5C1030.6 187.167 1028.1 185.5 1025.27 184.5C1022.6 183.5 1019.85 183 1017.02 183C1012.69 183 1008.69 183.75 1005.02 185.25C1001.52 186.75 998.353 188.667 995.52 191C992.686 193.167 990.186 195.417 988.02 197.75V290H955.77V199.5ZM1085.33 160H1119.83L1148.33 260.75H1148.83L1177.33 160H1211.83L1165.08 290H1131.83L1085.33 160ZM1283.54 292.75C1275.04 292.75 1266.96 291.417 1259.29 288.75C1251.62 286.083 1244.79 282 1238.79 276.5C1232.79 271 1227.96 264 1224.29 255.5C1220.79 246.833 1219.04 236.667 1219.04 225C1219.04 213.333 1220.79 203.25 1224.29 194.75C1227.96 186.083 1232.79 179 1238.79 173.5C1244.79 168 1251.62 163.917 1259.29 161.25C1266.96 158.583 1275.04 157.25 1283.54 157.25C1291.87 157.25 1299.87 158.583 1307.54 161.25C1315.37 163.917 1322.29 168 1328.29 173.5C1334.29 179 1339.04 186.083 1342.54 194.75C1346.04 203.25 1347.79 213.333 1347.79 225C1347.79 236.667 1346.04 246.833 1342.54 255.5C1339.04 264 1334.29 271 1328.29 276.5C1322.29 282 1315.37 286.083 1307.54 288.75C1299.87 291.417 1291.87 292.75 1283.54 292.75ZM1283.54 269.25C1288.54 269.25 1292.96 268.25 1296.79 266.25C1300.62 264.25 1303.87 261.417 1306.54 257.75C1309.21 254.083 1311.21 249.5 1312.54 244C1313.87 238.5 1314.54 232.167 1314.54 225C1314.54 217.833 1313.87 211.5 1312.54 206C1311.21 200.5 1309.21 195.917 1306.54 192.25C1303.87 188.583 1300.62 185.75 1296.79 183.75C1292.96 181.75 1288.54 180.75 1283.54 180.75C1278.54 180.75 1274.12 181.75 1270.29 183.75C1266.46 185.75 1263.21 188.583 1260.54 192.25C1257.87 195.917 1255.79 200.5 1254.29 206C1252.96 211.5 1252.29 217.833 1252.29 225C1252.29 232.167 1252.96 238.5 1254.29 244C1255.79 249.5 1257.87 254.083 1260.54 257.75C1263.21 261.417 1266.46 264.25 1270.29 266.25C1274.12 268.25 1278.54 269.25 1283.54 269.25ZM1371.79 103L1404.04 102V290H1371.79V103ZM1421.76 160H1456.26L1484.76 260.75H1485.26L1513.76 160H1548.26L1501.51 290H1468.26L1421.76 160ZM1566.14 160L1598.39 159V290H1566.14V160ZM1582.14 141.75C1576.97 141.75 1572.47 140.083 1568.64 136.75C1564.97 133.417 1563.14 129.083 1563.14 123.75C1563.14 118.417 1564.97 114.083 1568.64 110.75C1572.47 107.417 1576.97 105.75 1582.14 105.75C1587.31 105.75 1591.72 107.417 1595.39 110.75C1599.22 114.083 1601.14 118.417 1601.14 123.75C1601.14 129.083 1599.22 133.417 1595.39 136.75C1591.72 140.083 1587.31 141.75 1582.14 141.75ZM1675.59 292.75C1665.26 292.75 1656.09 289.917 1648.09 284.25C1640.26 278.583 1634.09 270.75 1629.59 260.75C1625.26 250.75 1623.09 239.167 1623.09 226C1623.09 212.5 1625.34 200.583 1629.84 190.25C1634.34 179.917 1640.59 171.833 1648.59 166C1656.59 160.167 1665.93 157.25 1676.59 157.25C1683.93 157.25 1690.59 158.667 1696.59 161.5C1702.59 164.167 1707.34 167.583 1710.84 171.75H1711.34V103L1743.84 102V253.75C1743.84 256.917 1743.84 260.833 1743.84 265.5C1743.84 270 1743.93 274.5 1744.09 279C1744.26 283.333 1744.43 287 1744.59 290H1721.84L1714.84 272.25H1714.34C1710.18 278.417 1704.84 283.417 1698.34 287.25C1691.84 290.917 1684.26 292.75 1675.59 292.75ZM1685.34 267.25C1692.18 267.25 1697.93 265.167 1702.59 261C1707.26 256.833 1710.18 252.167 1711.34 247V194.25C1708.34 190.583 1704.59 187.667 1700.09 185.5C1695.76 183.333 1691.26 182.25 1686.59 182.25C1680.26 182.25 1674.76 184.167 1670.09 188C1665.59 191.833 1662.09 197 1659.59 203.5C1657.26 210 1656.09 217.417 1656.09 225.75C1656.09 234.25 1657.26 241.667 1659.59 248C1662.09 254.167 1665.51 258.917 1669.84 262.25C1674.18 265.583 1679.34 267.25 1685.34 267.25ZM1832.61 292.75C1824.11 292.75 1816.03 291.417 1808.36 288.75C1800.69 286.083 1793.86 282 1787.86 276.5C1781.86 271 1777.03 264 1773.36 255.5C1769.86 246.833 1768.11 236.667 1768.11 225C1768.11 213.333 1769.86 203.25 1773.36 194.75C1777.03 186.083 1781.86 179 1787.86 173.5C1793.86 168 1800.69 163.917 1808.36 161.25C1816.03 158.583 1824.11 157.25 1832.61 157.25C1840.94 157.25 1848.94 158.583 1856.61 161.25C1864.44 163.917 1871.36 168 1877.36 173.5C1883.36 179 1888.11 186.083 1891.61 194.75C1895.11 203.25 1896.86 213.333 1896.86 225C1896.86 236.667 1895.11 246.833 1891.61 255.5C1888.11 264 1883.36 271 1877.36 276.5C1871.36 282 1864.44 286.083 1856.61 288.75C1848.94 291.417 1840.94 292.75 1832.61 292.75ZM1832.61 269.25C1837.61 269.25 1842.03 268.25 1845.86 266.25C1849.69 264.25 1852.94 261.417 1855.61 257.75C1858.28 254.083 1860.28 249.5 1861.61 244C1862.94 238.5 1863.61 232.167 1863.61 225C1863.61 217.833 1862.94 211.5 1861.61 206C1860.28 200.5 1858.28 195.917 1855.61 192.25C1852.94 188.583 1849.69 185.75 1845.86 183.75C1842.03 181.75 1837.61 180.75 1832.61 180.75C1827.61 180.75 1823.19 181.75 1819.36 183.75C1815.53 185.75 1812.28 188.583 1809.61 192.25C1806.94 195.917 1804.86 200.5 1803.36 206C1802.03 211.5 1801.36 217.833 1801.36 225C1801.36 232.167 1802.03 238.5 1803.36 244C1804.86 249.5 1806.94 254.083 1809.61 257.75C1812.28 261.417 1815.53 264.25 1819.36 266.25C1823.19 268.25 1827.61 269.25 1832.61 269.25ZM1977.74 202.25C1977.74 195.083 1977.66 187.833 1977.49 180.5C1977.49 173 1977.33 166.167 1976.99 160L2004.74 159L2006.99 177.5H2007.74C2012.58 172.167 2018.41 167.5 2025.24 163.5C2032.24 159.333 2040.08 157.25 2048.74 157.25C2059.24 157.25 2068.16 159.917 2075.49 165.25C2082.99 170.583 2088.74 178.167 2092.74 188C2096.74 197.667 2098.74 209.167 2098.74 222.5C2098.74 236.5 2096.33 248.833 2091.49 259.5C2086.83 270 2080.49 278.167 2072.49 284C2064.49 289.833 2055.41 292.75 2045.24 292.75C2039.91 292.75 2035.08 291.917 2030.74 290.25C2026.41 288.75 2022.58 286.75 2019.24 284.25C2015.91 281.583 2012.99 278.667 2010.49 275.5H2010.24V346H1977.74V202.25ZM2036.24 267.5C2043.24 267.5 2048.83 265.5 2052.99 261.5C2057.33 257.333 2060.49 251.917 2062.49 245.25C2064.49 238.583 2065.49 231.5 2065.49 224C2065.49 214.667 2064.33 207 2061.99 201C2059.66 195 2056.33 190.5 2051.99 187.5C2047.83 184.5 2042.91 183 2037.24 183C2033.58 183 2029.99 183.75 2026.49 185.25C2022.99 186.583 2019.83 188.417 2016.99 190.75C2014.33 193.083 2012.08 195.583 2010.24 198.25V246.5C2011.08 250 2012.66 253.333 2014.99 256.5C2017.33 259.667 2020.33 262.333 2023.99 264.5C2027.66 266.5 2031.74 267.5 2036.24 267.5ZM2181 292.75C2172.5 292.75 2164.42 291.417 2156.75 288.75C2149.08 286.083 2142.25 282 2136.25 276.5C2130.25 271 2125.42 264 2121.75 255.5C2118.25 246.833 2116.5 236.667 2116.5 225C2116.5 213.333 2118.25 203.25 2121.75 194.75C2125.42 186.083 2130.25 179 2136.25 173.5C2142.25 168 2149.08 163.917 2156.75 161.25C2164.42 158.583 2172.5 157.25 2181 157.25C2189.33 157.25 2197.33 158.583 2205 161.25C2212.83 163.917 2219.75 168 2225.75 173.5C2231.75 179 2236.5 186.083 2240 194.75C2243.5 203.25 2245.25 213.333 2245.25 225C2245.25 236.667 2243.5 246.833 2240 255.5C2236.5 264 2231.75 271 2225.75 276.5C2219.75 282 2212.83 286.083 2205 288.75C2197.33 291.417 2189.33 292.75 2181 292.75ZM2181 269.25C2186 269.25 2190.42 268.25 2194.25 266.25C2198.08 264.25 2201.33 261.417 2204 257.75C2206.67 254.083 2208.67 249.5 2210 244C2211.33 238.5 2212 232.167 2212 225C2212 217.833 2211.33 211.5 2210 206C2208.67 200.5 2206.67 195.917 2204 192.25C2201.33 188.583 2198.08 185.75 2194.25 183.75C2190.42 181.75 2186 180.75 2181 180.75C2176 180.75 2171.58 181.75 2167.75 183.75C2163.92 185.75 2160.67 188.583 2158 192.25C2155.33 195.917 2153.25 200.5 2151.75 206C2150.42 211.5 2149.75 217.833 2149.75 225C2149.75 232.167 2150.42 238.5 2151.75 244C2153.25 249.5 2155.33 254.083 2158 257.75C2160.67 261.417 2163.92 264.25 2167.75 266.25C2171.58 268.25 2176 269.25 2181 269.25ZM2269.25 290V199.5C2269.25 191 2269.16 183.667 2269 177.5C2268.83 171.333 2268.66 165.5 2268.5 160L2296.25 159L2299 181H2299.75C2304.41 173.667 2310.33 167.75 2317.5 163.25C2324.66 158.75 2333.41 156.833 2343.75 157.5V186C2335.08 185.167 2327.08 186 2319.75 188.5C2312.41 190.833 2306.33 195.333 2301.5 202V290H2269.25Z" fill="#E83B49"/>
</svg>
