<svg width="582" height="340" viewBox="0 0 582 340" fill="none" xmlns="http://www.w3.org/2000/svg">
<g id="Logo SVG Completo">
<g id="LogoVetorPentago">
<path d="M215.985 164.825C226.268 188.772 241.286 192.064 274.923 190.462L275.884 80.8618C280.313 63.987 286.038 58.7274 296.384 50.0968C311.426 38.8804 335.77 38.2395 352.76 50.0968C384.137 73.1706 379.333 114.511 352.76 131.816C330.786 143.829 315.395 143.975 296.384 131.816V190.462H331.619C350.109 186.094 357.598 180.872 363.971 164.825L388.955 88.8736C389.804 73.5143 388.067 65.8144 377.744 54.9038L308.236 5.23113C302.442 2.26271 298.926 1.06137 291.566 1.06503C284.289 0.814465 280.761 1.25341 275.377 2.98785L202.519 54.9038C194.812 63.4838 189.724 71.3477 191.001 88.8736L215.985 164.825Z" fill="#E73B49"/>
<path d="M325.199 118.357C341.856 118.357 353.067 106.179 353.067 90.476C353.067 74.773 341.215 62.5952 324.559 62.5952C307.902 62.5952 296.491 74.7176 296.691 90.476C296.891 106.234 308.543 118.357 325.199 118.357Z" fill="#E73B49"/>
<path d="M215.985 164.825C226.268 188.772 241.286 192.064 274.923 190.462L275.884 80.8618C280.313 63.987 286.038 58.7274 296.384 50.0968C311.426 38.8804 335.77 38.2395 352.76 50.0968C384.137 73.1706 379.333 114.511 352.76 131.816C330.786 143.829 315.395 143.975 296.384 131.816V190.462H331.619C350.109 186.094 357.598 180.872 363.971 164.825L388.955 88.8736C389.804 73.5143 388.067 65.8144 377.744 54.9038L308.236 5.23113C302.442 2.26271 298.926 1.06137 291.566 1.06503C284.289 0.814465 280.761 1.25341 275.377 2.98785L202.519 54.9038C194.812 63.4838 189.724 71.3477 191.001 88.8736L215.985 164.825Z" stroke="black" stroke-width="0.294271"/>
<path d="M325.199 118.357C341.856 118.357 353.067 106.179 353.067 90.476C353.067 74.773 341.215 62.5952 324.559 62.5952C307.902 62.5952 296.491 74.7176 296.691 90.476C296.891 106.234 308.543 118.357 325.199 118.357Z" stroke="black" stroke-width="0.294271"/>
</g>
<g id="Group 281">
<path id="Vector" d="M512.738 272.902C512.738 289.967 526.572 303.801 543.637 303.801C560.59 303.801 574.094 290.079 574.094 272.902C574.094 255.726 560.59 242.004 543.637 242.004C526.572 242.004 512.738 255.838 512.738 272.902Z" stroke="#E83B49" stroke-width="14.7135"/>
<path id="Vector_2" d="M424.457 272.902C424.457 289.967 438.291 303.801 455.355 303.801C472.308 303.801 485.813 290.079 485.813 272.902C485.813 255.726 472.308 242.004 455.355 242.004C438.291 242.004 424.457 255.838 424.457 272.902Z" stroke="#E63C49" stroke-width="14.7135"/>
<path id="Vector_3" d="M419.208 317.543C417.227 313.995 418.499 309.514 422.045 307.533C425.593 305.552 430.075 306.821 432.056 310.369L419.208 317.543ZM432.056 310.369C435.042 315.716 437.558 318.937 440.628 320.993C443.585 322.972 447.87 324.402 455.382 324.402V339.116C445.978 339.116 438.55 337.309 432.441 333.219C426.45 329.206 422.548 323.525 419.208 317.543L432.056 310.369ZM455.382 324.402C462.421 324.402 468.398 322.284 472.447 319.242C476.485 316.206 478.306 312.553 478.306 309.1H493.02C493.02 318.162 488.158 325.838 481.287 331.003C474.425 336.161 465.261 339.116 455.382 339.116V324.402Z" fill="#E63C49"/>
<path id="Vector_4" d="M485.664 268.785V311.16" stroke="#E63C49" stroke-width="14.7135"/>
<path id="Vector_5" d="M331.762 272.902C331.762 289.967 345.595 303.801 362.66 303.801C379.613 303.801 393.117 290.079 393.117 272.902C393.117 255.726 379.613 242.004 362.66 242.004C345.595 242.004 331.762 255.838 331.762 272.902Z" stroke="black" stroke-width="14.7135"/>
<path id="Vector_6" d="M331.762 272.902C331.762 289.967 345.595 303.801 362.66 303.801C379.613 303.801 393.117 290.079 393.117 272.902C393.117 255.726 379.613 242.004 362.66 242.004C345.595 242.004 331.762 255.838 331.762 272.902Z" stroke="black" stroke-width="14.7135"/>
<path id="Vector_7" d="M385.613 303.215C385.613 307.278 388.906 310.572 392.97 310.572C397.034 310.572 400.327 307.278 400.327 303.215H385.613ZM385.613 268.785V303.215H400.327V268.785H385.613Z" fill="black"/>
<path id="Vector_8" d="M295.565 216.404C295.565 212.341 292.272 209.047 288.208 209.047C284.144 209.047 280.852 212.341 280.852 216.404H295.565ZM280.852 216.404V289.677H295.565V216.404H280.852Z" fill="black"/>
<path id="Vector_9" d="M313.957 310.716C318.021 310.716 321.314 307.422 321.314 303.359C321.314 299.296 318.021 296.003 313.957 296.003V310.716ZM304.835 296.003C301.409 296.003 298.952 295.127 297.546 294.063C296.377 293.179 295.565 291.935 295.565 289.676H280.852C280.852 296.517 283.803 302.116 288.67 305.798C293.302 309.301 299.158 310.716 304.835 310.716V296.003ZM304.835 310.716H313.957V296.003H304.835V310.716Z" fill="black"/>
<path id="Vector_10" d="M274.379 243.77H305.866" stroke="black" stroke-width="14.7135" stroke-linecap="round"/>
<path id="Vector_11" d="M247.306 271.727C247.306 255.637 233.999 242.594 217.585 242.594C201.17 242.594 187.863 255.637 187.863 271.727" stroke="black" stroke-width="14.7135"/>
<path id="Vector_12" d="M187.566 242.301V303.215" stroke="black" stroke-width="14.7135" stroke-linecap="round"/>
<path id="Vector_13" d="M239.949 303.214C239.949 307.277 243.243 310.57 247.306 310.57C251.369 310.57 254.663 307.277 254.663 303.214H239.949ZM239.949 271.727V303.214H254.663V271.727H239.949Z" fill="black"/>
<path id="Vector_14" d="M123.415 302.626C107.651 302.626 94.8711 289.122 94.8711 272.464C94.8711 255.805 107.651 242.301 123.415 242.301" stroke="black" stroke-width="14.7135"/>
<path id="Vector_15" d="M163.439 273.049C163.439 277.112 160.145 280.406 156.082 280.406C152.019 280.406 148.725 277.112 148.725 273.049H163.439ZM148.725 273.049C148.725 260.909 137.617 249.655 123.418 249.655V234.941C144.974 234.941 163.439 252.035 163.439 273.049H148.725Z" fill="black"/>
<path id="Vector_16" d="M138.374 291.999C142.048 290.264 146.433 291.836 148.168 295.51C149.903 299.184 148.331 303.569 144.657 305.304L138.374 291.999ZM121.652 295.267C128.26 295.267 131.13 294.891 132.805 294.456C134.536 294.006 135.02 293.583 138.374 291.999L144.657 305.304C142.714 306.221 140.012 307.785 136.507 308.696C132.947 309.621 128.534 309.981 121.652 309.981V295.267Z" fill="black"/>
<path id="Vector_17" d="M155.934 281.733C159.997 281.733 163.29 278.439 163.29 274.376C163.29 270.313 159.997 267.02 155.934 267.02V281.733ZM101.641 281.733H155.934V267.02H101.641V281.733Z" fill="black"/>
<path id="Vector_18" d="M69.5664 272.902C69.5664 289.967 55.7327 303.801 38.668 303.801C21.7141 303.801 8.21094 290.079 8.21094 272.902C8.21094 255.726 21.7141 242.004 38.668 242.004C55.7327 242.004 69.5664 255.838 69.5664 272.902Z" stroke="black" stroke-width="14.7135"/>
<path id="Vector_19" d="M1 332.642C1 336.705 4.29377 339.999 8.35677 339.999C12.4198 339.999 15.7135 336.705 15.7135 332.642H1ZM1 268.785V332.642H15.7135V268.785H1Z" fill="black"/>
</g>
</g>
</svg>
