<svg viewBox="0 0 755 409" fill="none" xmlns="http://www.w3.org/2000/svg">
<g id="SebraeLogo">
<g id="Group">
<path id="Vector" opacity="0.997" fill-rule="evenodd" clip-rule="evenodd" d="M290.652 0.908203C370.115 0.908203 449.576 0.908203 529.039 0.908203C526.141 15.5984 523.196 30.2796 520.203 44.9516C440.74 45.1358 361.279 45.1972 281.816 45.1358C284.738 30.3885 287.683 15.646 290.652 0.908203Z" fill="#1D66C3"/>
</g>
<g id="Group_2">
<path id="Vector_2" opacity="0.997" fill-rule="evenodd" clip-rule="evenodd" d="M276.109 69.2773C355.572 69.2773 435.033 69.2773 514.496 69.2773C511.644 83.9775 508.699 98.6587 505.66 113.321C426.197 113.505 346.736 113.566 267.273 113.505C270.195 98.7575 273.14 84.0149 276.109 69.2773Z" fill="#1D66C3"/>
</g>
<g id="Group_3">
<path id="Vector_3" opacity="0.996" fill-rule="evenodd" clip-rule="evenodd" d="M261.937 139.672C286.235 139.641 310.534 139.672 334.833 139.764C341.929 140.289 348.435 142.501 354.346 146.398C362.097 152.412 365.197 160.305 363.642 170.078C361.884 180.825 356.393 189.024 347.167 194.68C341.379 198.004 335.242 200.461 328.758 202.051C335.291 203.081 341.243 205.477 346.614 209.238C350.787 212.645 353.273 217.039 354.07 222.414C355.187 234.846 351.445 245.534 342.841 254.479C334.281 262.971 323.943 267.67 311.823 268.577C307.662 269.056 303.491 269.362 299.305 269.498C277.644 269.59 255.985 269.622 234.324 269.59C243.434 226.264 252.639 182.957 261.937 139.672ZM292.494 162.891C299.981 162.86 307.466 162.891 314.952 162.983C323.186 163.484 326.899 167.815 326.089 175.975C323.961 186.922 317.303 192.113 306.116 191.547C299.55 191.7 292.984 191.671 286.419 191.455C288.514 181.948 290.539 172.427 292.494 162.891ZM281.449 214.859C288.568 214.827 295.684 214.859 302.803 214.951C316.259 215.835 320.462 222.562 315.412 235.13C312.581 240.66 308.071 243.948 301.882 244.989C300.36 245.276 298.827 245.461 297.28 245.542C289.856 245.634 282.43 245.665 275.006 245.634C277.177 235.38 279.325 225.121 281.449 214.859Z" fill="#1D65C4"/>
</g>
<g id="Group_4">
<path id="Vector_4" opacity="0.994" fill-rule="evenodd" clip-rule="evenodd" d="M0.90625 241.764C0.90625 239.308 0.90625 236.849 0.90625 234.393C1.27124 232.021 1.63941 229.625 2.01074 227.206C14.0988 227.206 26.1868 227.206 38.2749 227.206C35.5776 238.674 40.0568 245.031 51.7129 246.279C57.2578 246.874 62.6577 246.261 67.9121 244.436C74.4202 241.582 77.9177 236.577 78.4048 229.417C78.2137 226.054 76.6185 223.627 73.6187 222.138C72.3732 221.537 71.0846 221.047 69.7529 220.664C58.6386 217.745 47.5324 214.796 36.4341 211.818C16.0458 205.365 9.57226 192.067 17.0134 171.921C19.924 164.834 24.3727 158.906 30.3594 154.138C39.3656 147.146 49.5514 142.816 60.917 141.146C70.4547 139.766 80.0269 139.489 89.6338 140.317C95.4466 140.793 101.092 142.021 106.569 144.003C119.87 149.403 125.423 159.262 123.229 173.58C122.951 175.558 122.613 177.524 122.216 179.477C110.067 179.477 97.9175 179.477 85.7681 179.477C85.9466 178.183 86.1615 176.893 86.4124 175.607C87.3092 168.273 84.1491 163.942 76.9321 162.615C69.969 161.456 63.6488 162.93 57.9717 167.038C53.9942 170.381 52.2454 174.651 52.7253 179.845C53.2132 181.748 54.2256 183.314 55.7627 184.545C57.0007 185.472 58.3505 186.209 59.8125 186.756C69.5447 189.483 79.3011 192.124 89.0816 194.68C95.1283 196.267 100.896 198.541 106.385 201.499C113.239 206.004 116.675 212.393 116.694 220.664C115.834 238.37 107.734 251.514 92.395 260.1C80.6716 266.089 68.2155 269.222 55.0264 269.499C46.0533 269.943 37.1561 269.327 28.3345 267.656C21.5853 266.395 15.5105 263.692 10.1104 259.547C4.72665 254.819 1.65862 248.89 0.90625 241.764Z" fill="#1D65C4"/>
</g>
<g id="Group_5">
<path id="Vector_5" opacity="0.996" fill-rule="evenodd" clip-rule="evenodd" d="M147.988 140.041C180.877 140.041 213.766 140.041 246.656 140.041C244.966 148.34 243.248 156.633 241.501 164.919C220.639 164.919 199.776 164.919 178.914 164.919C176.964 173.877 175.062 182.846 173.207 191.824C192.78 191.824 212.356 191.824 231.929 191.824C230.173 200.122 228.393 208.415 226.591 216.702C206.955 216.641 187.319 216.702 167.685 216.887C165.732 226.016 163.768 235.138 161.794 244.252C183.148 244.284 204.501 244.376 225.854 244.529C224.014 252.821 222.173 261.114 220.332 269.407C186.952 269.652 153.572 269.652 120.191 269.407C129.504 226.294 138.77 183.173 147.988 140.041Z" fill="#1D65C4"/>
</g>
<g id="Group_6">
<path id="Vector_6" opacity="0.995" fill-rule="evenodd" clip-rule="evenodd" d="M386.191 140.041C410.429 140.01 434.665 140.041 458.903 140.133C465.457 139.947 471.778 141.052 477.864 143.45C485.501 147.3 489.643 153.534 490.289 162.155C490.766 185.324 479.69 199.3 457.062 204.079C455.05 204.519 453.026 204.888 450.988 205.184C450.728 205.253 450.544 205.406 450.436 205.645C454.485 205.833 458.473 206.415 462.401 207.396C469.348 209.229 473.122 213.744 473.722 220.941C473.91 222.778 474.002 224.621 473.998 226.469C473.584 235.44 473.124 244.407 472.617 253.374C472.443 258.602 472.503 263.823 472.802 269.038C499.263 226.316 525.679 183.562 552.049 140.778C566.959 140.594 581.87 140.532 596.781 140.594C604.687 183.606 612.663 226.605 620.711 269.591C606.966 269.652 593.221 269.591 579.477 269.407C578.266 260.876 577.101 252.339 575.979 243.792C558.492 243.731 541.004 243.792 523.516 243.976C518.706 252.469 513.92 260.976 509.158 269.499C483.815 269.591 458.474 269.622 433.132 269.591C433.095 266.209 433.187 262.83 433.408 259.455C434.273 249.63 435.102 239.802 435.893 229.97C435.998 227.396 435.416 225 434.144 222.783C432.95 221.34 431.446 220.388 429.634 219.927C428.057 219.562 426.463 219.315 424.848 219.19C421.719 219.159 418.589 219.129 415.46 219.098C412.259 219.1 409.1 219.221 405.98 219.466C402.355 236.17 398.766 252.878 395.211 269.591C382.938 269.652 370.665 269.591 358.395 269.407C367.718 226.296 376.983 183.175 386.191 140.041ZM417.853 163.997C424.913 163.928 431.968 164.02 439.022 164.274C441.67 164.408 444.247 164.9 446.754 165.748C450.99 167.559 453.136 170.784 453.197 175.423C452.324 188.553 445.329 195.217 432.211 195.418C425.216 195.51 418.221 195.541 411.226 195.51C413.435 185.006 415.644 174.502 417.853 163.997ZM566.959 166.025C567.144 166.025 567.328 166.025 567.512 166.025C569.205 183.964 570.923 201.901 572.666 219.835C560.885 219.866 549.104 219.835 537.322 219.743C547.323 201.901 557.201 183.995 566.959 166.025Z" fill="#1D65C4"/>
</g>
<g id="Group_7">
<path id="Vector_7" opacity="0.996" fill-rule="evenodd" clip-rule="evenodd" d="M754.91 140.041C754.91 140.348 754.91 140.655 754.91 140.962C753.139 148.915 751.421 156.9 749.755 164.919C728.893 164.919 708.029 164.919 687.167 164.919C685.266 173.887 683.363 182.856 681.461 191.824C701.034 191.824 720.61 191.824 740.183 191.824C738.499 200.075 736.719 208.306 734.845 216.518C715.211 216.702 695.575 216.763 675.938 216.702C673.989 225.907 672.087 235.121 670.232 244.345C691.525 244.345 712.816 244.345 734.108 244.345C732.326 252.746 730.486 261.131 728.586 269.499C695.206 269.622 661.825 269.622 628.445 269.499C637.793 226.368 647.058 183.215 656.242 140.041C689.132 140.041 722.02 140.041 754.91 140.041Z" fill="#1D65C4"/>
</g>
<g id="Group_8">
<path id="Vector_8" opacity="0.997" fill-rule="evenodd" clip-rule="evenodd" d="M228.434 296.312C307.896 296.312 387.357 296.312 466.82 296.312C463.922 311.003 460.977 325.683 457.984 340.356C378.521 340.54 299.06 340.601 219.598 340.54C222.519 325.792 225.464 311.05 228.434 296.312Z" fill="#1D66C3"/>
</g>
<g id="Group_9">
<path id="Vector_9" opacity="0.997" fill-rule="evenodd" clip-rule="evenodd" d="M443.441 408.907C363.978 408.907 284.517 408.907 205.055 408.907C207.976 394.159 210.921 379.417 213.891 364.68C293.353 364.68 372.814 364.68 452.277 364.68C449.401 379.437 446.456 394.18 443.441 408.907Z" fill="#1D66C3"/>
</g>
</g>
</svg>
